<mxfile host="app.diagrams.net" modified="2024-02-19T08:58:32.416Z" agent="Mozilla/5.0 (Windows NT 10.0; Win64; x64) AppleWebKit/537.36 (KHTML, like Gecko) Chrome/121.0.0.0 Safari/537.36" etag="Ly2Ec0-ZMRNwbZAYa2CT" version="23.1.5" type="device">
  <diagram name="Page-1" id="e7e014a7-5840-1c2e-5031-d8a46d1fe8dd">
    <mxGraphModel dx="1032" dy="539" grid="1" gridSize="10" guides="1" tooltips="1" connect="1" arrows="1" fold="1" page="1" pageScale="1" pageWidth="1169" pageHeight="826" background="none" math="0" shadow="0">
      <root>
        <mxCell id="0" />
        <mxCell id="1" parent="0" />
        <mxCell id="2" value="Admin" style="swimlane;whiteSpace=wrap" parent="1" vertex="1">
          <mxGeometry x="164.5" y="20" width="280" height="750" as="geometry" />
        </mxCell>
        <mxCell id="5" value="" style="ellipse;shape=startState;fillColor=#000000;strokeColor=#ff0000;" parent="2" vertex="1">
          <mxGeometry x="100" y="40" width="30" height="30" as="geometry" />
        </mxCell>
        <mxCell id="6" value="" style="edgeStyle=elbowEdgeStyle;elbow=horizontal;verticalAlign=bottom;endArrow=open;endSize=8;strokeColor=#000000;endFill=1;rounded=0" parent="2" source="5" target="7" edge="1">
          <mxGeometry x="100" y="40" as="geometry">
            <mxPoint x="115" y="110" as="targetPoint" />
          </mxGeometry>
        </mxCell>
        <mxCell id="7" value="Masuk aplikasi" style="rounded=1;" parent="2" vertex="1">
          <mxGeometry x="60" y="110" width="110" height="50" as="geometry" />
        </mxCell>
        <mxCell id="8" value="Input username dan&#xa;password" style="rounded=1;" parent="2" vertex="1">
          <mxGeometry x="60" y="182" width="120" height="50" as="geometry" />
        </mxCell>
        <mxCell id="10" value="Input user, petugas,&#xa;data perpustakaan" style="rounded=1;" parent="2" vertex="1">
          <mxGeometry x="60" y="325" width="110" height="50" as="geometry" />
        </mxCell>
        <mxCell id="mZJ6y9TAnj5w67NsaYQ--63" value="Melihat laporan" style="rounded=1;" parent="2" vertex="1">
          <mxGeometry x="62.5" y="490" width="145" height="30" as="geometry" />
        </mxCell>
        <mxCell id="mZJ6y9TAnj5w67NsaYQ--69" value="Logout" style="rounded=1;" parent="2" vertex="1">
          <mxGeometry x="140" y="630" width="105" height="30" as="geometry" />
        </mxCell>
        <mxCell id="mZJ6y9TAnj5w67NsaYQ--71" value="" style="ellipse;html=1;shape=endState;fillColor=#000000;strokeColor=#ff0000;" parent="2" vertex="1">
          <mxGeometry x="177.5" y="690" width="30" height="30" as="geometry" />
        </mxCell>
        <mxCell id="mZJ6y9TAnj5w67NsaYQ--70" value="" style="endArrow=open;strokeColor=#000000;endFill=1;rounded=0;exitX=0.5;exitY=1;exitDx=0;exitDy=0;" parent="2" source="mZJ6y9TAnj5w67NsaYQ--69" target="mZJ6y9TAnj5w67NsaYQ--71" edge="1">
          <mxGeometry relative="1" as="geometry">
            <mxPoint x="632.5" y="600" as="sourcePoint" />
            <mxPoint x="172.5" y="680" as="targetPoint" />
          </mxGeometry>
        </mxCell>
        <mxCell id="3" value="Sistem" style="swimlane;whiteSpace=wrap" parent="1" vertex="1">
          <mxGeometry x="444.5" y="20" width="485.5" height="750" as="geometry" />
        </mxCell>
        <mxCell id="15" value="Menampilkan menu login" style="rounded=1;" parent="3" vertex="1">
          <mxGeometry x="20" y="110" width="150" height="50" as="geometry" />
        </mxCell>
        <mxCell id="16" value="Verifikasi username&#xa;dan password" style="rounded=1;" parent="3" vertex="1">
          <mxGeometry x="20" y="225" width="110" height="50" as="geometry" />
        </mxCell>
        <mxCell id="21" value="" style="rhombus;" parent="3" vertex="1">
          <mxGeometry x="170" y="225" width="80" height="40" as="geometry" />
        </mxCell>
        <mxCell id="24" value="" style="endArrow=open;strokeColor=#000000;endFill=1;rounded=0" parent="3" source="16" target="21" edge="1">
          <mxGeometry relative="1" as="geometry" />
        </mxCell>
        <mxCell id="30" value="Menampilkan menu&#xa;utama" style="rounded=1;" parent="3" vertex="1">
          <mxGeometry x="155" y="325" width="110" height="50" as="geometry" />
        </mxCell>
        <mxCell id="mZJ6y9TAnj5w67NsaYQ--42" value="" style="endArrow=open;strokeColor=#000000;endFill=1;rounded=0;exitX=0.5;exitY=1;exitDx=0;exitDy=0;entryX=0.5;entryY=0;entryDx=0;entryDy=0;" parent="3" source="21" target="30" edge="1">
          <mxGeometry relative="1" as="geometry">
            <mxPoint x="140" y="258" as="sourcePoint" />
            <mxPoint x="183" y="256" as="targetPoint" />
          </mxGeometry>
        </mxCell>
        <mxCell id="mZJ6y9TAnj5w67NsaYQ--43" value="Yes" style="text;strokeColor=none;align=center;fillColor=none;html=1;verticalAlign=middle;whiteSpace=wrap;rounded=0;" parent="3" vertex="1">
          <mxGeometry x="212.25" y="275" width="32.75" height="30" as="geometry" />
        </mxCell>
        <mxCell id="mZJ6y9TAnj5w67NsaYQ--45" value="Username &amp; password&#xa;salah" style="rounded=1;" parent="3" vertex="1">
          <mxGeometry x="295.5" y="220" width="124.5" height="50" as="geometry" />
        </mxCell>
        <mxCell id="mZJ6y9TAnj5w67NsaYQ--46" value="" style="endArrow=open;strokeColor=#000000;endFill=1;rounded=0;exitX=1;exitY=0.5;exitDx=0;exitDy=0;entryX=0;entryY=0.5;entryDx=0;entryDy=0;" parent="3" source="21" target="mZJ6y9TAnj5w67NsaYQ--45" edge="1">
          <mxGeometry relative="1" as="geometry">
            <mxPoint x="140" y="258" as="sourcePoint" />
            <mxPoint x="183" y="256" as="targetPoint" />
          </mxGeometry>
        </mxCell>
        <mxCell id="mZJ6y9TAnj5w67NsaYQ--47" value="No" style="text;strokeColor=none;align=center;fillColor=none;html=1;verticalAlign=middle;whiteSpace=wrap;rounded=0;" parent="3" vertex="1">
          <mxGeometry x="250" y="210" width="32.75" height="30" as="geometry" />
        </mxCell>
        <mxCell id="mZJ6y9TAnj5w67NsaYQ--48" value="" style="endArrow=open;strokeColor=#000000;endFill=1;rounded=0;entryX=1;entryY=0.5;entryDx=0;entryDy=0;exitX=0.5;exitY=0;exitDx=0;exitDy=0;" parent="3" source="mZJ6y9TAnj5w67NsaYQ--45" target="15" edge="1">
          <mxGeometry relative="1" as="geometry">
            <mxPoint x="105.5" y="170" as="sourcePoint" />
            <mxPoint x="-89.5" y="217" as="targetPoint" />
            <Array as="points">
              <mxPoint x="355.5" y="135" />
            </Array>
          </mxGeometry>
        </mxCell>
        <mxCell id="mZJ6y9TAnj5w67NsaYQ--52" value="Menyimpan data" style="rounded=1;" parent="3" vertex="1">
          <mxGeometry x="102.25" y="393" width="110" height="50" as="geometry" />
        </mxCell>
        <mxCell id="mZJ6y9TAnj5w67NsaYQ--55" value="Menampilkan kembali menu utama" style="rounded=1;" parent="3" vertex="1">
          <mxGeometry x="265" y="393" width="205" height="50" as="geometry" />
        </mxCell>
        <mxCell id="mZJ6y9TAnj5w67NsaYQ--65" value="Menampilkan laporan" style="rounded=1;" parent="3" vertex="1">
          <mxGeometry x="275.5" y="540" width="134.5" height="50" as="geometry" />
        </mxCell>
        <mxCell id="mZJ6y9TAnj5w67NsaYQ--67" value="Menampilkan kembali menu utama" style="rounded=1;" parent="3" vertex="1">
          <mxGeometry x="240.25" y="620" width="205" height="50" as="geometry" />
        </mxCell>
        <mxCell id="mZJ6y9TAnj5w67NsaYQ--54" value="" style="endArrow=open;strokeColor=#000000;endFill=1;rounded=0;exitX=1;exitY=0.5;exitDx=0;exitDy=0;entryX=0;entryY=0.5;entryDx=0;entryDy=0;" parent="3" source="mZJ6y9TAnj5w67NsaYQ--52" edge="1" target="mZJ6y9TAnj5w67NsaYQ--55">
          <mxGeometry relative="1" as="geometry">
            <mxPoint x="140" y="258" as="sourcePoint" />
            <mxPoint x="265.5" y="420" as="targetPoint" />
          </mxGeometry>
        </mxCell>
        <mxCell id="mZJ6y9TAnj5w67NsaYQ--41" value="" style="endArrow=open;strokeColor=#000000;endFill=1;rounded=0;exitX=1;exitY=0.5;exitDx=0;exitDy=0;entryX=0;entryY=0.5;entryDx=0;entryDy=0;" parent="1" source="7" target="15" edge="1">
          <mxGeometry relative="1" as="geometry">
            <mxPoint x="444.5" y="238" as="sourcePoint" />
            <mxPoint x="399.5" y="333" as="targetPoint" />
          </mxGeometry>
        </mxCell>
        <mxCell id="17" value="" style="endArrow=open;strokeColor=#000000;endFill=1;rounded=0;entryX=1;entryY=0.5;entryDx=0;entryDy=0;" parent="1" source="15" target="8" edge="1">
          <mxGeometry relative="1" as="geometry">
            <mxPoint x="370" y="330" as="targetPoint" />
            <Array as="points">
              <mxPoint x="540" y="227" />
            </Array>
          </mxGeometry>
        </mxCell>
        <mxCell id="11" value="" style="endArrow=open;strokeColor=#000000;endFill=1;rounded=0;entryX=0;entryY=0.5;entryDx=0;entryDy=0;" parent="1" target="16" edge="1">
          <mxGeometry relative="1" as="geometry">
            <mxPoint x="280" y="250" as="sourcePoint" />
            <Array as="points">
              <mxPoint x="280" y="270" />
            </Array>
          </mxGeometry>
        </mxCell>
        <mxCell id="mZJ6y9TAnj5w67NsaYQ--50" value="" style="endArrow=open;strokeColor=#000000;endFill=1;rounded=0;exitX=0;exitY=0.5;exitDx=0;exitDy=0;entryX=1;entryY=0.5;entryDx=0;entryDy=0;" parent="1" source="30" target="10" edge="1">
          <mxGeometry relative="1" as="geometry">
            <mxPoint x="550" y="190" as="sourcePoint" />
            <mxPoint x="360" y="350" as="targetPoint" />
            <Array as="points">
              <mxPoint x="510" y="370" />
            </Array>
          </mxGeometry>
        </mxCell>
        <mxCell id="mZJ6y9TAnj5w67NsaYQ--51" value="" style="endArrow=open;strokeColor=#000000;endFill=1;rounded=0;exitX=0.5;exitY=1;exitDx=0;exitDy=0;entryX=0;entryY=0.5;entryDx=0;entryDy=0;" parent="1" source="10" target="mZJ6y9TAnj5w67NsaYQ--52" edge="1">
          <mxGeometry relative="1" as="geometry">
            <mxPoint x="560" y="200" as="sourcePoint" />
            <mxPoint x="540" y="440" as="targetPoint" />
            <Array as="points">
              <mxPoint x="280" y="440" />
            </Array>
          </mxGeometry>
        </mxCell>
        <mxCell id="mZJ6y9TAnj5w67NsaYQ--62" value="" style="endArrow=open;strokeColor=#000000;endFill=1;rounded=0;exitX=0.5;exitY=1;exitDx=0;exitDy=0;entryX=1;entryY=0.5;entryDx=0;entryDy=0;" parent="1" source="mZJ6y9TAnj5w67NsaYQ--55" target="mZJ6y9TAnj5w67NsaYQ--63" edge="1">
          <mxGeometry relative="1" as="geometry">
            <mxPoint x="744.75" y="525" as="sourcePoint" />
            <mxPoint x="390" y="570" as="targetPoint" />
            <Array as="points">
              <mxPoint x="812" y="525" />
            </Array>
          </mxGeometry>
        </mxCell>
        <mxCell id="mZJ6y9TAnj5w67NsaYQ--64" value="" style="endArrow=open;strokeColor=#000000;endFill=1;rounded=0;exitX=0.5;exitY=1;exitDx=0;exitDy=0;entryX=0;entryY=0.5;entryDx=0;entryDy=0;" parent="1" source="mZJ6y9TAnj5w67NsaYQ--63" target="mZJ6y9TAnj5w67NsaYQ--65" edge="1">
          <mxGeometry relative="1" as="geometry">
            <mxPoint x="297" y="510" as="sourcePoint" />
            <mxPoint x="700" y="580" as="targetPoint" />
            <Array as="points">
              <mxPoint x="300" y="585" />
            </Array>
          </mxGeometry>
        </mxCell>
        <mxCell id="mZJ6y9TAnj5w67NsaYQ--66" value="" style="endArrow=open;strokeColor=#000000;endFill=1;rounded=0;exitX=0.5;exitY=1;exitDx=0;exitDy=0;" parent="1" source="mZJ6y9TAnj5w67NsaYQ--65" edge="1">
          <mxGeometry relative="1" as="geometry">
            <mxPoint x="664.5" y="295" as="sourcePoint" />
            <mxPoint x="787" y="640" as="targetPoint" />
          </mxGeometry>
        </mxCell>
        <mxCell id="mZJ6y9TAnj5w67NsaYQ--68" value="" style="endArrow=open;strokeColor=#000000;endFill=1;rounded=0;exitX=0;exitY=0.5;exitDx=0;exitDy=0;" parent="1" source="mZJ6y9TAnj5w67NsaYQ--67" edge="1">
          <mxGeometry relative="1" as="geometry">
            <mxPoint x="610" y="380" as="sourcePoint" />
            <mxPoint x="410" y="665" as="targetPoint" />
            <Array as="points">
              <mxPoint x="520" y="665" />
            </Array>
          </mxGeometry>
        </mxCell>
      </root>
    </mxGraphModel>
  </diagram>
</mxfile>
